<?xml version="1.0" encoding="utf-8"?>
<!-- Generator: Adobe Illustrator 14.0.0, SVG Export Plug-In . SVG Version: 6.00 Build 43363)  -->
<!DOCTYPE svg PUBLIC "-//W3C//DTD SVG 1.1//EN" "http://www.w3.org/Graphics/SVG/1.1/DTD/svg11.dtd">
<svg xmlns="http://www.w3.org/2000/svg" xmlns:xlink="http://www.w3.org/1999/xlink" version="1.1" id="Layer_1" x="0px" y="0px" width="100px" height="100px" viewBox="0 0 100 100" enable-background="new 0 0 100 100" xml:space="preserve">

<g>
	<path fill="#231F20" d="M18.646,51.305l19.547-40.989l40.944,19.55l-6.621,2.32l-3.414-1.61l10.937,30.812L37.246,76.533   L26.547,46.288l-1.273,2.652l0.332,0.146l-6.628,2.366L18.646,51.305L18.646,51.305z M61.247,26.84l-20.734-9.896l-9.844,20.727   L61.247,26.84L61.247,26.84z M30.623,42.931l9.651,27.259l33.421-11.828l-9.658-27.266L30.623,42.931z"/>
	<path fill="#A5CD39" d="M79.613,64.847c-2.372,14.765-15.198,26.077-30.629,26.077c-17.081,0-31.047-13.914-31.047-31.005   c0-1.461,0.093-2.933,0.325-4.352l5.355-1.703c-0.431,1.942-0.709,3.978-0.709,6.055c0,14.344,11.732,26.04,26.076,26.04   c11.931,0,22.06-8.093,25.088-19.083L79.613,64.847L79.613,64.847z M45.392,81.319l7.384,3.122l3.076-7.385l-7.338-3.125   L45.392,81.319z"/>
	<path fill="#A5CD39" d="M40.513,16.944l-2.89,6.058l-4.354-2.413l4.924-10.274l17.937,8.57l-2.506-7.148   c1.563-0.573,3.121-1.087,4.732-1.515l4.169,11.689l16.611,7.954l-6.621,2.32L40.513,16.944z"/>
</g>
</svg>
