<?xml version="1.0" encoding="utf-8"?>
<!-- Generator: Adobe Illustrator 14.0.0, SVG Export Plug-In . SVG Version: 6.00 Build 43363)  -->
<!DOCTYPE svg PUBLIC "-//W3C//DTD SVG 1.1//EN" "http://www.w3.org/Graphics/SVG/1.1/DTD/svg11.dtd">
<svg xmlns="http://www.w3.org/2000/svg" xmlns:xlink="http://www.w3.org/1999/xlink" version="1.1" id="Layer_1" x="0px" y="0px" width="100px" height="100px" viewBox="0 0 100 100" enable-background="new 0 0 100 100" xml:space="preserve">

<g>
	<g>
		<path fill="#ACBB72" d="M72.128,84.993c-6.4,4.2-14.084,6.643-22.353,6.643c-8.213,0-15.903-2.442-22.362-6.643h16.074V62.452    h9.722v22.541H72.128z"/>
		<path fill="#F48120" d="M70.856,15.116C82.91,22.329,91,35.492,91,50.456c0,12.877-5.994,24.408-15.316,31.978V48.128h10.252    l-19.458-11.12V23.091H65.85c0.057-0.175,0.113-0.347,0.113-0.526c0-0.816-0.529-1.456-1.288-1.631    c0.465-0.522,0.759-1.28,0.759-2.039c0-0.644-0.172-1.224-0.465-1.741c0.53,0.224,1.109,0.343,1.744,0.343    C68.468,17.497,69.984,16.567,70.856,15.116z"/>
		<path fill="#FFCA05" d="M49.775,9.289c4.191,0,8.212,0.579,11.996,1.75c-0.065,0.347-0.065,0.64-0.065,0.93    c0,1.452,0.53,2.793,1.347,3.78c-0.237-0.057-0.531-0.114-0.816-0.114c-1.802,0-3.262,1.46-3.262,3.262    c0,1.75,1.46,3.201,3.262,3.201c0.229,0,0.522,0,0.758-0.057c-0.064,0.118-0.122,0.29-0.122,0.526    c0,0.179,0.058,0.351,0.122,0.526h-2.625v10.427L47.557,26.17L12.269,48.128h10.244v33.139    C13.958,73.698,8.591,62.689,8.591,50.456C8.591,27.744,27.12,9.289,49.775,9.289z"/>
	</g>
</g>
</svg>
