<?xml version="1.0" encoding="utf-8"?>
<!-- Generator: Adobe Illustrator 14.0.0, SVG Export Plug-In . SVG Version: 6.00 Build 43363)  -->
<!DOCTYPE svg PUBLIC "-//W3C//DTD SVG 1.1//EN" "http://www.w3.org/Graphics/SVG/1.1/DTD/svg11.dtd">
<svg version="1.1" id="Layer_1" xmlns="http://www.w3.org/2000/svg" xmlns:xlink="http://www.w3.org/1999/xlink" x="0px" y="0px"
	 width="100px" height="100px" viewBox="0 0 100 100" enable-background="new 0 0 100 100" xml:space="preserve">
<path fill="none" d="M20.639,2.418c-0.356-0.238-0.391,0.238-0.708,0.09C19.863,2.848,20.769,3.086,20.639,2.418z"/>
<path fill="none" d="M19.738,2.916c0.017-0.147,0.04-0.283,0.057-0.419c-0.125,0.091-0.243,0.181-0.436,0.136
	C19.376,3.086,19.512,3.12,19.738,2.916z"/>
<g>
	<g>
		<g>
			<g>
				<radialGradient id="SVGID_1_" cx="36.2603" cy="62.3418" r="25.6843" gradientUnits="userSpaceOnUse">
					<stop  offset="0" style="stop-color:#00A59B"/>
					<stop  offset="0.4042" style="stop-color:#01A29A"/>
					<stop  offset="0.6881" style="stop-color:#039999"/>
					<stop  offset="0.9345" style="stop-color:#078A96"/>
					<stop  offset="1" style="stop-color:#088495"/>
				</radialGradient>
				<path fill="url(#SVGID_1_)" d="M38.145,60.455c-6.418-6.419-8.932-14.698-7.91-22.207c-5.104-0.394-11.313-0.938-18.972-1.592
					c-1.65,5.531-0.377,11.581,4.375,16.332l29.974,29.975c4.753,4.743,10.811,6.033,16.333,4.374
					c-0.645-7.659-1.199-13.859-1.584-18.972C52.844,69.389,44.565,66.874,38.145,60.455z"/>
				<radialGradient id="SVGID_2_" cx="34.5674" cy="21.3921" r="17.8292" gradientUnits="userSpaceOnUse">
					<stop  offset="0" style="stop-color:#00A59B"/>
					<stop  offset="0.4042" style="stop-color:#01A29A"/>
					<stop  offset="0.6881" style="stop-color:#039999"/>
					<stop  offset="0.9345" style="stop-color:#078A96"/>
					<stop  offset="1" style="stop-color:#088495"/>
				</radialGradient>
				<path fill="url(#SVGID_2_)" d="M12.545,31.98c7.4,0.687,13.399,1.207,18.318,1.692c0.997-6.184,4.577-11.321,10.098-14.279
					c4.86-2.614,10.449-3.075,15.628-1.978c-0.167-2.363-0.301-4.936-0.468-7.743c-3.16-0.83-6.428-0.788-9.117,0.444L22.601,21.254
					C17.523,23.584,13.979,27.455,12.545,31.98z"/>
				<radialGradient id="SVGID_3_" cx="77.2109" cy="64.0293" r="17.8277" gradientUnits="userSpaceOnUse">
					<stop  offset="0" style="stop-color:#00A59B"/>
					<stop  offset="0.4042" style="stop-color:#01A29A"/>
					<stop  offset="0.6881" style="stop-color:#039999"/>
					<stop  offset="0.9345" style="stop-color:#078A96"/>
					<stop  offset="1" style="stop-color:#088495"/>
				</radialGradient>
				<path fill="url(#SVGID_3_)" d="M81.185,42.011c1.099,5.17,0.629,10.769-1.978,15.629c-2.959,5.522-8.095,9.1-14.279,10.105
					c0.486,4.911,1.014,10.91,1.693,18.302c4.525-1.425,8.396-4.96,10.726-10.048l11.137-24.401c1.231-2.69,1.282-5.958,0.452-9.117
					C86.121,42.321,83.547,42.178,81.185,42.011z"/>
				<radialGradient id="SVGID_4_" cx="73.5674" cy="25.0332" r="14.5557" gradientUnits="userSpaceOnUse">
					<stop  offset="0" style="stop-color:#00A59B"/>
					<stop  offset="0.4042" style="stop-color:#01A29A"/>
					<stop  offset="0.6881" style="stop-color:#039999"/>
					<stop  offset="0.9345" style="stop-color:#078A96"/>
					<stop  offset="1" style="stop-color:#088495"/>
				</radialGradient>
				<path fill="url(#SVGID_4_)" d="M73.047,25.562c3.788,3.788,6.304,8.43,7.384,13.14c2.33,0.243,4.895,0.561,7.692,0.888
					c-0.839-3.05-2.556-6.108-5.02-8.564L67.576,15.497c-2.455-2.455-5.515-4.19-8.564-5.019c0.326,2.799,0.637,5.363,0.889,7.692
					C64.602,19.243,69.252,21.774,73.047,25.562z"/>
			</g>
		</g>
	</g>
	<radialGradient id="SVGID_5_" cx="58.4697" cy="51.9746" r="10.851" gradientUnits="userSpaceOnUse">
		<stop  offset="0" style="stop-color:#00A59B"/>
		<stop  offset="0.4042" style="stop-color:#01A29A"/>
		<stop  offset="0.6881" style="stop-color:#039999"/>
		<stop  offset="0.9345" style="stop-color:#078A96"/>
		<stop  offset="1" style="stop-color:#088495"/>
	</radialGradient>
	<path fill="url(#SVGID_5_)" d="M68.875,51.137l-7.525-7.508c-1.592-1.601-3.997-1.744-5.446-0.252l-7.885,8.128
		c-1.953,2.012-2.012,5.347-0.026,7.341l2.774,2.766c-1.575-1.567-1.592-4.274-0.101-5.966l6.184-7.023
		c1.157-1.324,3.127-1.299,4.451,0.017l6.176,6.176c1.307,1.315,1.643,3.578,0.712,5.137l1.616-2.682
		C70.902,55.443,70.467,52.729,68.875,51.137z"/>
	<radialGradient id="SVGID_6_" cx="68.4785" cy="40.8706" r="8.5367" gradientUnits="userSpaceOnUse">
		<stop  offset="0" style="stop-color:#00A59B"/>
		<stop  offset="0.4042" style="stop-color:#01A29A"/>
		<stop  offset="0.6881" style="stop-color:#039999"/>
		<stop  offset="0.9345" style="stop-color:#078A96"/>
		<stop  offset="1" style="stop-color:#088495"/>
	</radialGradient>
	<path fill="url(#SVGID_6_)" d="M67.081,31.762l-5.044,5.196c-1.207,1.248-0.974,3.553,0.578,5.111l7.332,7.341
		c1.55,1.551,3.604,1.508,4.525-0.017l1.215-2.011c-0.679,1.123-2.205,1.114-3.378-0.06l-5.547-5.538
		c-1.174-1.173-1.416-2.942-0.561-3.897l3.628-4.131c0.703-0.796,2.095-0.595,3.108,0.437l-1.802-1.81
		C69.838,31.083,68.036,30.791,67.081,31.762z"/>
	<radialGradient id="SVGID_7_" cx="56.5186" cy="28.9824" r="8.5475" gradientUnits="userSpaceOnUse">
		<stop  offset="0" style="stop-color:#00A59B"/>
		<stop  offset="0.4042" style="stop-color:#01A29A"/>
		<stop  offset="0.6881" style="stop-color:#039999"/>
		<stop  offset="0.9345" style="stop-color:#078A96"/>
		<stop  offset="1" style="stop-color:#088495"/>
	</radialGradient>
	<path fill="url(#SVGID_7_)" d="M47.976,27.506l7.341,7.34c1.541,1.559,3.862,1.793,5.11,0.586l5.213-5.053
		c0.974-0.947,0.679-2.749-0.619-4.047l-1.802-1.81c1.021,1.03,1.231,2.413,0.427,3.117l-4.132,3.628
		c-0.963,0.847-2.731,0.612-3.904-0.579l-5.547-5.539c-1.181-1.181-1.181-2.698-0.059-3.385l-2.012,1.223
		C46.45,23.919,46.417,25.947,47.976,27.506z"/>
	<radialGradient id="SVGID_8_" cx="45.4951" cy="39.1113" r="10.8645" gradientUnits="userSpaceOnUse">
		<stop  offset="0" style="stop-color:#00A59B"/>
		<stop  offset="0.4042" style="stop-color:#01A29A"/>
		<stop  offset="0.6881" style="stop-color:#039999"/>
		<stop  offset="0.9345" style="stop-color:#078A96"/>
		<stop  offset="1" style="stop-color:#088495"/>
	</radialGradient>
	<path fill="url(#SVGID_8_)" d="M45.964,49.578l8.138-7.911c1.491-1.441,1.349-3.854-0.244-5.455l-7.517-7.518
		c-1.6-1.591-4.315-2.036-6.134-0.938l-2.689,1.625c1.55-0.938,3.82-0.603,5.136,0.712l6.192,6.185c1.3,1.315,1.34,3.285,0.008,4.45
		l-7.039,6.201c-1.693,1.492-4.391,1.475-5.967-0.101l2.757,2.773C40.61,51.59,43.944,51.539,45.964,49.578z"/>
</g>
</svg>
