<?xml version="1.0" encoding="utf-8"?>
<!-- Generator: Adobe Illustrator 16.0.0, SVG Export Plug-In . SVG Version: 6.00 Build 0)  -->
<!DOCTYPE svg PUBLIC "-//W3C//DTD SVG 1.1//EN" "http://www.w3.org/Graphics/SVG/1.1/DTD/svg11.dtd">
<svg version="1.1" id="Layer_1" xmlns="http://www.w3.org/2000/svg" xmlns:xlink="http://www.w3.org/1999/xlink" x="0px" y="0px"
	 width="100px" height="100px" viewBox="0 0 100 100" enable-background="new 0 0 100 100" xml:space="preserve">
<g>
	<g>
		<path fill="#9A8379" d="M51.865,9.44c-1.029-1.452-2.711-1.452-3.744,0l-7.676,10.832c-1.03,1.457-1.03,3.832,0,5.278l6.149,8.678
			c1.033,1.449,2.215,2.15,2.639,1.559c0.422-0.591,1.604,0.11,2.634,1.559l4.171,5.884c1.033,1.455,2.711,1.455,3.742,0
			l6.153-8.681c1.025-1.449,1.025-3.824,0-5.276L51.865,9.44z"/>
		<path fill="#F6BE3F" d="M37.46,28.79c-1.033-1.449-2.716-1.452-3.742,0L19.759,48.484c-1.027,1.451-1.027,3.826,0,5.275
			l7.693,10.847c1.03,1.454,2.711,1.454,3.739,0l6.151-8.679c1.03-1.452,1.526-3.128,1.103-3.725c-0.424-0.591,0.07-2.268,1.1-3.719
			l4.068-5.743c1.025-1.447,1.025-3.827-0.005-5.278L37.46,28.79z"/>
		<path fill="#F6BE3F" d="M72.662,37.788c-1.03-1.447-2.709-1.444-3.741,0.005l-6.151,8.671c-1.028,1.457-1.549,3.098-1.16,3.65
			c0.396,0.554-0.125,2.188-1.155,3.642l-4.161,5.872c-1.029,1.452-1.027,3.829,0,5.276l6.149,8.678
			c1.033,1.449,2.719,1.454,3.747,0l14.052-19.828c1.027-1.452,1.027-3.824,0-5.276L72.662,37.788z"/>
		<path fill="#9A8379" d="M53.308,68.141c-1.028-1.449-2.19-2.183-2.595-1.626c-0.389,0.559-1.554-0.178-2.582-1.629l-4.061-5.718
			c-1.03-1.452-2.711-1.449-3.742,0l-6.146,8.674c-1.03,1.451-1.033,3.826,0,5.283l13.952,19.669c1.028,1.452,2.712,1.452,3.745,0
			l7.58-10.696c1.027-1.452,1.027-3.832,0-5.283L53.308,68.141z"/>
	</g>
</g>
</svg>
