<?xml version="1.0" encoding="utf-8"?>
<!-- Generator: Adobe Illustrator 14.0.0, SVG Export Plug-In . SVG Version: 6.00 Build 43363)  -->
<!DOCTYPE svg PUBLIC "-//W3C//DTD SVG 1.1//EN" "http://www.w3.org/Graphics/SVG/1.1/DTD/svg11.dtd">
<svg version="1.1" id="Layer_1" xmlns="http://www.w3.org/2000/svg" xmlns:xlink="http://www.w3.org/1999/xlink" x="0px" y="0px"
	 width="100px" height="100px" viewBox="0 0 100 100" enable-background="new 0 0 100 100" xml:space="preserve">
<path fill="none" d="M20.639,2.418c-0.356-0.238-0.391,0.238-0.708,0.09C19.863,2.848,20.769,3.086,20.639,2.418z"/>
<path fill="none" d="M19.738,2.916c0.017-0.147,0.04-0.283,0.057-0.419c-0.125,0.091-0.243,0.181-0.436,0.136
	C19.376,3.086,19.512,3.12,19.738,2.916z"/>
<g>
	<path fill="#FBB13D" d="M8.956,67.61l29.455,3.24c0.094-0.816,0.25-1.618,0.476-2.396l-28.414-8.215
		C9.761,62.621,9.247,65.086,8.956,67.61z"/>
	<path fill="#F8A240" d="M41.056,63.947L17.195,46.889c-1.489,1.989-2.809,4.128-3.941,6.364l26.549,12.806
		C40.164,65.315,40.581,64.614,41.056,63.947z"/>
	<path fill="#F3753F" d="M44.594,60.42L27.99,36.673c-2.077,1.372-4.024,2.927-5.827,4.629L42.716,62
		C43.296,61.42,43.924,60.896,44.594,60.42z"/>
	<path fill="#F37940" d="M49.112,58.273L41.48,30.777c-2.417,0.587-4.747,1.378-6.979,2.358l12.312,26
		C47.542,58.791,48.313,58.499,49.112,58.273z"/>
	<path fill="#EE3E3A" d="M52.23,57.757c0.622-0.035,1.239-0.035,1.851,0.01l1.934-28.014c-2.236-0.215-4.521-0.264-6.843-0.132
		c-0.146,0.014-0.292,0.021-0.435,0.031l2.892,28.153C51.828,57.788,52.025,57.773,52.23,57.757z"/>
	<path fill="#EC1A38" d="M69.915,33.572c-2.156-1.007-4.418-1.847-6.762-2.486l-6.537,27.069c0.799,0.195,1.576,0.459,2.322,0.778
		L69.915,33.572z"/>
	<path fill="#D71732" d="M63.13,61.656l18.549-19.973c-1.715-1.664-3.559-3.174-5.525-4.532l-14.955,22.99
		C61.886,60.594,62.528,61.097,63.13,61.656z"/>
	<path fill="#B91029" d="M66.181,65.61l23.922-12.538c-1.084-2.121-2.334-4.139-3.73-6.027l-21.518,16.5
		C65.353,64.197,65.796,64.885,66.181,65.61z"/>
	<path fill="#A00820" d="M92.786,59.635l-25.611,8.344c0.246,0.768,0.438,1.562,0.555,2.386l26.611-3.841
		C94.009,64.156,93.483,61.86,92.786,59.635z"/>
	<path fill="#A00820" d="M66.397,70.572c-1.549-6.26-6.842-10.906-13.191-10.906c-6.5,0-11.903,4.857-13.303,11.344
		c2.994-1.906,7.469-4.427,13.195-4.427C59.212,66.583,63.618,68.857,66.397,70.572z"/>
</g>
</svg>
