<?xml version="1.0" encoding="utf-8"?>
<!-- Generator: Adobe Illustrator 16.0.0, SVG Export Plug-In . SVG Version: 6.00 Build 0)  -->
<!DOCTYPE svg PUBLIC "-//W3C//DTD SVG 1.1//EN" "http://www.w3.org/Graphics/SVG/1.1/DTD/svg11.dtd">
<svg version="1.1" id="Layer_1" xmlns="http://www.w3.org/2000/svg" xmlns:xlink="http://www.w3.org/1999/xlink" x="0px" y="0px"
	 width="100px" height="100px" viewBox="0 0 100 100" enable-background="new 0 0 100 100" xml:space="preserve">
<g>
	<polygon fill="#68696A" points="69.542,13.846 36.078,13.712 36.005,31.208 86.966,31.409 	"/>
	<polygon fill="#26AAE1" points="86.812,70.197 86.938,36.732 69.45,36.668 69.249,87.621 	"/>
	<polygon fill="#68696A" points="30.461,87.462 63.925,87.595 64,70.103 13.034,69.899 	"/>
	<polygon fill="#68696A" points="13.194,31.11 13.06,64.58 30.556,64.647 30.756,13.687 	"/>
	<polygon fill="#68696A" points="58.29,35.041 44.098,34.982 44.062,42.403 65.687,42.489 	"/>
	<polygon fill="#26AAE1" points="65.617,58.946 65.674,44.746 58.255,44.72 58.167,66.334 	"/>
	<polygon fill="#68696A" points="41.712,66.268 55.91,66.326 55.94,58.904 34.316,58.822 	"/>
	<polygon fill="#68696A" points="34.389,42.368 34.332,56.561 41.749,56.588 41.836,34.972 	"/>
</g>
</svg>
