<?xml version="1.0" encoding="utf-8"?>
<!-- Generator: Adobe Illustrator 14.0.0, SVG Export Plug-In . SVG Version: 6.00 Build 43363)  -->
<!DOCTYPE svg PUBLIC "-//W3C//DTD SVG 1.1//EN" "http://www.w3.org/Graphics/SVG/1.1/DTD/svg11.dtd">
<svg version="1.1" id="Layer_1" xmlns="http://www.w3.org/2000/svg" xmlns:xlink="http://www.w3.org/1999/xlink" x="0px" y="0px"
	 width="100px" height="100px" viewBox="0 0 100 100" enable-background="new 0 0 100 100" xml:space="preserve">
<g>
	<path fill="none" d="M35.518,34.439c-0.125,2.059-0.237,4.131-0.31,6.269c-1.802,1.152-3.565,2.289-5.262,3.428
		c0.914,1.828,1.848,3.697,2.854,5.572c-1.006,1.896-1.94,3.763-2.854,5.599c1.697,1.139,3.46,2.275,5.262,3.413
		c0.072,2.132,0.185,4.224,0.31,6.271c2.053,0.125,4.151,0.243,6.282,0.335c1.125,1.789,2.263,3.552,3.408,5.249
		c1.828-0.894,3.716-1.854,5.585-2.867c1.888,1.013,3.756,1.974,5.598,2.867c1.146-1.697,2.289-3.46,3.421-5.249
		c2.125-0.092,4.217-0.21,6.263-0.335c0.112-2.047,0.243-4.139,0.316-6.271c1.809-1.138,3.571-2.274,5.275-3.413
		c-0.914-1.836-1.855-3.703-2.861-5.599c1.006-1.875,1.947-3.744,2.861-5.572c-1.704-1.139-3.467-2.276-5.275-3.428
		c-0.073-2.138-0.204-4.21-0.316-6.269c-2.046-0.132-4.138-0.244-6.263-0.31c-1.132-1.815-2.275-3.565-3.421-5.276
		c-1.842,0.908-3.71,1.882-5.598,2.869c-1.869-0.987-3.757-1.96-5.585-2.869c-1.145,1.71-2.283,3.46-3.408,5.276
		C39.669,34.196,37.57,34.308,35.518,34.439z"/>
	<path fill="#FFDFB2" d="M12.657,42.3c-0.507,2.487-0.776,5.059-0.783,7.697c0.006,2.461,0.29,4.848,0.73,7.185
		c2.849-2.441,5.894-4.934,9.334-7.474C18.519,47.195,15.493,44.721,12.657,42.3z"/>
	<path fill="#FCF5AE" d="M21.584,24.52c-3.184,3.651-5.677,7.867-7.329,12.519c3.618-0.671,7.414-1.29,11.559-1.737
		C24.163,31.512,22.801,27.959,21.584,24.52z"/>
	<path fill="#D4E495" d="M38.083,13.342c-4.625,1.625-8.809,4.052-12.44,7.177c3.415,1.217,6.967,2.573,10.723,4.21
		C36.839,20.645,37.438,16.901,38.083,13.342z"/>
	<path fill="#FCF06B" d="M24.275,20.052c-1.592-0.539-3.23-1.145-4.729-1.592c0.447,1.487,1.039,3.118,1.585,4.697
		C22.117,22.065,23.163,21.039,24.275,20.052z"/>
	<path fill="#FCF06B" d="M35.518,34.439c0.236-3.355,0.507-6.585,0.849-9.71c-3.756-1.638-7.309-2.993-10.723-4.21
		c-1.46,1.237-2.802,2.56-4.059,4c1.217,3.44,2.579,6.992,4.23,10.782C28.919,34.946,32.189,34.65,35.518,34.439z"/>
	<path fill="#05AD4B" d="M56.391,28.854c-1.842-2.802-3.729-5.446-5.598-7.986c-1.862,2.54-3.724,5.184-5.585,7.986
		c1.828,0.908,3.716,1.882,5.585,2.869C52.681,30.736,54.549,29.762,56.391,28.854z"/>
	<path fill="#68B745" d="M41.8,34.13c1.125-1.815,2.263-3.565,3.408-5.276c-3-1.487-5.954-2.854-8.842-4.125
		c-0.342,3.125-0.612,6.355-0.849,9.71C37.57,34.308,39.669,34.196,41.8,34.13z"/>
	<path fill="#B2D460" d="M42.562,10.665c-1.079-1.217-2.164-2.533-3.21-3.625c-0.368,1.526-0.671,3.27-0.993,4.934
		C39.754,11.514,41.109,10.974,42.562,10.665z"/>
	<path fill="#B2D460" d="M36.366,24.729c2.888,1.27,5.841,2.638,8.842,4.125c1.861-2.802,3.723-5.446,5.585-7.986
		c-2.46-3.354-4.875-6.328-7.27-9.104c-1.881,0.355-3.664,0.96-5.44,1.579C37.438,16.901,36.839,20.645,36.366,24.729z"/>
	<path fill="#CB7129" d="M29.946,55.307c-1.5,3.012-2.875,5.965-4.131,8.822c3.105,0.368,6.375,0.65,9.703,0.861
		c-0.125-2.047-0.237-4.139-0.31-6.271C33.406,57.582,31.643,56.445,29.946,55.307z"/>
	<path fill="#CD3827" d="M35.518,64.99c0.236,3.349,0.507,6.598,0.849,9.702c2.888-1.248,5.841-2.63,8.842-4.118
		c-1.145-1.697-2.283-3.46-3.408-5.249C39.669,65.233,37.57,65.115,35.518,64.99z"/>
	<path fill="#80287F" d="M66.074,64.99c3.354-0.211,6.605-0.493,9.71-0.861c-1.25-2.857-2.631-5.811-4.118-8.822
		c-1.704,1.139-3.467,2.275-5.275,3.413C66.317,60.852,66.187,62.943,66.074,64.99z"/>
	<path fill="#C12026" d="M45.208,70.574c1.861,2.803,3.723,5.461,5.585,7.986c1.868-2.525,3.756-5.184,5.598-7.986
		c-1.842-0.894-3.71-1.854-5.598-2.867C48.924,68.72,47.036,69.681,45.208,70.574z"/>
	<path fill="#00589C" d="M71.666,44.136c1.487-3.026,2.868-5.967,4.118-8.835c-3.104-0.355-6.355-0.651-9.71-0.862
		c0.112,2.059,0.243,4.131,0.316,6.269C68.199,41.86,69.962,42.998,71.666,44.136z"/>
	<path fill="#EC1653" d="M56.391,70.574c3.026,1.488,5.974,2.87,8.835,4.118c0.336-3.104,0.639-6.354,0.849-9.702
		c-2.046,0.125-4.138,0.243-6.263,0.335C58.68,67.114,57.536,68.877,56.391,70.574z"/>
	<path fill="#623894" d="M71.666,55.307c2.796-1.862,5.454-3.703,7.979-5.599c-2.525-1.868-5.184-3.724-7.979-5.572
		c-0.914,1.828-1.855,3.697-2.861,5.572C69.811,51.604,70.752,53.471,71.666,55.307z"/>
	<path fill="#0589C2" d="M66.074,34.439c-0.21-3.355-0.513-6.585-0.849-9.71c-2.861,1.27-5.809,2.638-8.835,4.125
		c1.146,1.71,2.289,3.46,3.421,5.276C61.937,34.196,64.028,34.308,66.074,34.439z"/>
	<path fill="#EF575C" d="M38.484,88.074c0.29,1.46,0.546,2.993,0.868,4.327c0.915-0.961,1.869-2.11,2.809-3.176
		C40.892,88.941,39.708,88.481,38.484,88.074z"/>
	<path fill="#EF575C" d="M45.208,70.574c-3,1.488-5.954,2.87-8.842,4.118c0.5,4.343,1.144,8.297,1.848,12.039
		c1.593,0.546,3.158,1.145,4.835,1.486c2.54-2.928,5.118-6.064,7.743-9.657C48.931,76.035,47.069,73.377,45.208,70.574z"/>
	<path fill="#865CA5" d="M89.026,62.05c1.507-0.298,3.086-0.566,4.474-0.896c-0.993-0.948-2.191-1.928-3.289-2.894
		C89.928,59.569,89.434,60.786,89.026,62.05z"/>
	<path fill="#865CA5" d="M71.666,55.307c1.487,3.012,2.868,5.965,4.118,8.822c4.275-0.476,8.184-1.105,11.894-1.797
		c0.547-1.65,1.112-3.296,1.441-5.025c-2.882-2.493-5.974-5.014-9.474-7.599C77.12,51.604,74.462,53.444,71.666,55.307z"/>
	<path fill="#D289BA" d="M80.198,75.455c3.296-3.815,5.835-8.234,7.479-13.123c-3.71,0.691-7.618,1.321-11.894,1.797
		C77.527,68.101,78.941,71.852,80.198,75.455z"/>
	<path fill="#F6B4CD" d="M63.384,86.784c4.921-1.69,9.374-4.275,13.189-7.657c-3.61-1.251-7.354-2.677-11.348-4.435
		C64.745,79.049,64.094,83.008,63.384,86.784z"/>
	<path fill="#B998C6" d="M89.119,57.307c0.453-2.376,0.736-4.81,0.743-7.31c-0.007-2.684-0.276-5.289-0.79-7.808
		c-2.874,2.454-5.946,4.959-9.427,7.519C83.146,52.293,86.237,54.813,89.119,57.307z"/>
	<path fill="#B65CA3" d="M77.929,79.574c1.375,0.475,2.815,1.007,4.118,1.381c-0.388-1.295-0.934-2.763-1.395-4.145
		C79.784,77.785,78.89,78.706,77.929,79.574z"/>
	<path fill="#B65CA3" d="M66.074,64.99c-0.21,3.349-0.513,6.598-0.849,9.702c3.993,1.758,7.737,3.184,11.348,4.435
		c1.29-1.145,2.487-2.368,3.625-3.672c-1.257-3.604-2.671-7.354-4.414-11.326C72.68,64.497,69.429,64.779,66.074,64.99z"/>
	<path fill="#57A1D8" d="M90.065,41.3c1.152-1.006,2.396-2.033,3.435-3.013c-1.447-0.355-3.099-0.631-4.657-0.947
		C89.283,38.656,89.77,39.945,90.065,41.3z"/>
	<path fill="#57A1D8" d="M71.666,44.136c2.796,1.848,5.454,3.704,7.979,5.572c3.48-2.559,6.553-5.065,9.427-7.519
		c-0.368-1.777-0.992-3.441-1.585-5.132c-3.658-0.684-7.493-1.296-11.703-1.756C74.534,38.169,73.153,41.11,71.666,44.136z"/>
	<path fill="#F073A0" d="M59.47,89.258c0.914,1.052,1.868,2.196,2.763,3.144c0.323-1.321,0.579-2.849,0.869-4.275
		C61.891,88.521,60.72,88.988,59.47,89.258z"/>
	<path fill="#F073A0" d="M56.391,70.574c-1.842,2.803-3.729,5.461-5.598,7.986c2.65,3.593,5.229,6.743,7.77,9.671
		c1.67-0.329,3.229-0.922,4.821-1.447c0.71-3.776,1.361-7.735,1.842-12.092C62.364,73.444,59.417,72.062,56.391,70.574z"/>
	<path fill="#F59DA3" d="M43.05,88.218c2.526,0.52,5.138,0.802,7.815,0.802c2.638,0,5.21-0.282,7.697-0.788
		c-2.54-2.928-5.119-6.078-7.77-9.671C48.168,82.153,45.589,85.29,43.05,88.218z"/>
	<path fill="#92C9EC" d="M87.487,37.058c-1.671-4.71-4.197-8.973-7.435-12.664c-1.223,3.48-2.598,7.065-4.269,10.907
		C79.994,35.762,83.829,36.374,87.487,37.058z"/>
	<path fill="#A2DDF8" d="M76.061,20.474c-3.678-3.119-7.895-5.572-12.552-7.171c0.658,3.565,1.256,7.329,1.717,11.427
		C69.021,23.065,72.6,21.704,76.061,20.474z"/>
	<path fill="#A3D295" d="M58.082,11.75c-2.343-0.447-4.743-0.743-7.217-0.743c-2.513,0-4.947,0.296-7.342,0.757
		c2.395,2.776,4.809,5.75,7.27,9.104C53.272,17.513,55.7,14.54,58.082,11.75z"/>
	<path fill="#61C7F2" d="M80.508,23.039c0.526-1.545,1.104-3.125,1.539-4.578c-1.461,0.434-3.072,1.026-4.632,1.559
		C78.501,20.974,79.533,21.967,80.508,23.039z"/>
	<path fill="#61C7F2" d="M66.074,34.439c3.354,0.21,6.605,0.507,9.71,0.862c1.671-3.842,3.046-7.427,4.269-10.907
		c-1.236-1.401-2.571-2.697-3.992-3.92c-3.461,1.23-7.039,2.592-10.835,4.256C65.562,27.854,65.864,31.084,66.074,34.439z"/>
	<path fill="#79C37D" d="M56.391,28.854c3.026-1.487,5.974-2.854,8.835-4.125c-0.461-4.098-1.059-7.861-1.717-11.427
		c-1.77-0.618-3.546-1.197-5.427-1.553c-2.382,2.79-4.81,5.763-7.289,9.118C52.661,23.408,54.549,26.052,56.391,28.854z"/>
	<path fill="#79C37D" d="M63.226,11.935c-0.321-1.658-0.624-3.381-0.993-4.895c-1.026,1.086-2.111,2.382-3.171,3.605
		C60.503,10.935,61.845,11.48,63.226,11.935z"/>
	<path fill="#F48360" d="M20.979,76.693c-0.48,1.434-1.033,2.92-1.434,4.262c1.329-0.387,2.802-0.933,4.216-1.407
		C22.775,78.646,21.874,77.686,20.979,76.693z"/>
	<path fill="#F48360" d="M35.518,64.99c-3.329-0.211-6.598-0.493-9.703-0.861c-1.717,3.933-3.131,7.644-4.375,11.195
		c1.151,1.343,2.361,2.592,3.69,3.764c3.573-1.251,7.283-2.651,11.236-4.396C36.024,71.588,35.754,68.339,35.518,64.99z"/>
	<path fill="#F9BAA4" d="M25.13,79.088c3.783,3.354,8.19,5.952,13.084,7.644c-0.704-3.742-1.348-7.696-1.848-12.039
		C32.413,76.437,28.703,77.837,25.13,79.088z"/>
	<path fill="#FDD5A4" d="M14.072,62.358c1.618,4.828,4.125,9.203,7.368,12.966c1.243-3.552,2.657-7.263,4.375-11.195
		C21.597,63.667,17.736,63.05,14.072,62.358z"/>
	<path fill="#FAB15B" d="M29.946,55.307c-2.809-1.862-5.474-3.703-8.006-5.599c-3.44,2.54-6.486,5.032-9.334,7.474
		c0.335,1.781,0.895,3.486,1.467,5.177c3.664,0.691,7.525,1.309,11.743,1.771C27.071,61.271,28.446,58.318,29.946,55.307z"/>
	<path fill="#FAB15B" d="M11.493,58.169c-1.138,0.985-2.368,2.019-3.395,2.985c1.427,0.342,3.059,0.624,4.611,0.935
		C12.295,60.772,11.776,59.522,11.493,58.169z"/>
	<path fill="#E68B24" d="M29.946,44.136c-2.809,1.848-5.474,3.704-8.006,5.572c2.533,1.896,5.197,3.736,8.006,5.599
		c0.914-1.836,1.848-3.703,2.854-5.599C31.794,47.833,30.86,45.964,29.946,44.136z"/>
	<path fill="#FDC36E" d="M29.946,44.136c-1.5-3.026-2.875-5.967-4.131-8.835c-4.145,0.447-7.94,1.065-11.559,1.737
		c-0.611,1.724-1.237,3.434-1.599,5.262c2.835,2.421,5.862,4.895,9.282,7.408C24.472,47.84,27.137,45.984,29.946,44.136z"/>
	<path fill="#FDC36E" d="M12.901,37.314c-1.619,0.309-3.315,0.605-4.802,0.973c1.072,1,2.342,2.066,3.532,3.105
		C11.94,39.985,12.447,38.669,12.901,37.314z"/>
	<path fill="#DBCD23" d="M35.518,34.439c-3.329,0.21-6.598,0.507-9.703,0.862c1.256,2.868,2.631,5.809,4.131,8.835
		c1.697-1.139,3.46-2.276,5.262-3.428C35.28,38.57,35.393,36.499,35.518,34.439z"/>
</g>
</svg>
