<?xml version="1.0" encoding="utf-8"?>
<!-- Generator: Adobe Illustrator 16.0.0, SVG Export Plug-In . SVG Version: 6.00 Build 0)  -->
<!DOCTYPE svg PUBLIC "-//W3C//DTD SVG 1.1//EN" "http://www.w3.org/Graphics/SVG/1.1/DTD/svg11.dtd">
<svg version="1.1" id="Layer_1" xmlns="http://www.w3.org/2000/svg" xmlns:xlink="http://www.w3.org/1999/xlink" x="0px" y="0px"
	 width="100px" height="100px" viewBox="0 0 100 100" enable-background="new 0 0 100 100" xml:space="preserve">
<g>
	<path fill="#989897" d="M33.518,94.705c3.839-4.667,7.544-8.926,11.098-12.899c-9.32-23.84-18.571-39.904-26.778-51.811
		c-3.325,3.701-6.712,7.66-10.177,11.909C15.421,54.063,24.312,70.462,33.518,94.705z"/>
	<path fill="#FCBF10" d="M29.225,18.035c-3.045,3.001-6.17,6.27-9.363,9.727c8.267,11.927,17.567,27.939,26.903,51.689
		c3.346-3.618,6.552-6.954,9.639-9.989C47.155,45.977,37.753,30.013,29.225,18.035z"/>
	<g>
		<path fill="#989897" d="M92.339,35.388c-1.677-5.222-3.387-10.146-5.129-14.805c-9.982,6.741-21.701,15.916-35.377,29.646
			c2.346,4.557,4.699,9.337,7.06,14.374C71.91,51.321,82.967,42.209,92.339,35.388z"/>
		<path fill="#FCBF10" d="M86.14,17.768c-1.713-4.39-3.43-8.57-5.168-12.474c-10.565,6.899-22.81,16.312-36.924,30.529
			c2.12,3.727,4.254,7.623,6.4,11.721C64.221,33.74,76.042,24.542,86.14,17.768z"/>
	</g>
</g>
</svg>
