<?xml version="1.0" encoding="utf-8"?>
<!-- Generator: Adobe Illustrator 14.0.0, SVG Export Plug-In . SVG Version: 6.00 Build 43363)  -->
<!DOCTYPE svg PUBLIC "-//W3C//DTD SVG 1.1//EN" "http://www.w3.org/Graphics/SVG/1.1/DTD/svg11.dtd">
<svg version="1.1" id="Layer_1" xmlns="http://www.w3.org/2000/svg" xmlns:xlink="http://www.w3.org/1999/xlink" x="0px" y="0px"
	 width="100px" height="100px" viewBox="0 0 100 100" enable-background="new 0 0 100 100" xml:space="preserve">
<path fill="none" d="M20.639,2.418c-0.356-0.238-0.391,0.238-0.708,0.09C19.863,2.848,20.769,3.086,20.639,2.418z"/>
<path fill="none" d="M19.738,2.916c0.017-0.147,0.04-0.283,0.057-0.419c-0.125,0.091-0.243,0.181-0.436,0.136
	C19.376,3.086,19.512,3.12,19.738,2.916z"/>
<g>
	<linearGradient id="SVGID_1_" gradientUnits="userSpaceOnUse" x1="46.0537" y1="44.0879" x2="94.6992" y2="44.0879">
		<stop  offset="0" style="stop-color:#ADCA8C"/>
		<stop  offset="1" style="stop-color:#8EA776"/>
	</linearGradient>
	<path fill="url(#SVGID_1_)" d="M94.36,36.377c0.904-0.64-0.06-0.916-2.2-0.526c-7.948,1.528-15.69,3.755-23.396,6.518
		c-2.313,0.856-4.605,1.81-6.849,2.872c-5.012,2.384-10.072,4.681-15.198,6.918c-1.512,0.656-0.352,0.33,2.558-0.617
		c9.525-3.018,19.077-5.38,28.814-6.854c2.167-0.314,4.529-0.699,6.49-1.734C87.886,40.804,91.147,38.609,94.36,36.377z"/>
	<linearGradient id="SVGID_2_" gradientUnits="userSpaceOnUse" x1="50.6709" y1="38.1592" x2="88.7988" y2="38.1592">
		<stop  offset="0" style="stop-color:#ADCA8C"/>
		<stop  offset="1" style="stop-color:#8EA776"/>
	</linearGradient>
	<path fill="url(#SVGID_2_)" d="M88.584,26.906c0.65-0.721-0.228-0.764-1.967-0.021c-6.458,2.839-12.603,6.236-18.611,10.078
		c-1.804,1.17-3.564,2.433-5.261,3.766c-3.793,2.996-7.656,5.928-11.573,8.826c-1.159,0.851-0.238,0.347,2.054-1.019
		c7.504-4.416,15.16-8.268,23.146-11.421c1.788-0.683,3.722-1.463,5.18-2.726C83.941,31.918,86.287,29.426,88.584,26.906z"/>
	<linearGradient id="SVGID_3_" gradientUnits="userSpaceOnUse" x1="54.1514" y1="32.4824" x2="81.3955" y2="32.4824">
		<stop  offset="0" style="stop-color:#ADCA8C"/>
		<stop  offset="1" style="stop-color:#8EA776"/>
	</linearGradient>
	<path fill="url(#SVGID_3_)" d="M81.286,19.532c0.401-0.721-0.336-0.591-1.642,0.357c-4.828,3.582-9.292,7.569-13.557,11.904
		c-1.273,1.322-2.497,2.698-3.657,4.129c-2.584,3.208-5.233,6.382-7.938,9.53c-0.808,0.927-0.136,0.331,1.512-1.235
		c5.396-5.093,11.031-9.752,17.072-13.876c1.35-0.91,2.812-1.929,3.782-3.251C78.377,24.582,79.855,22.068,81.286,19.532z"/>
</g>
<g>
	<linearGradient id="SVGID_4_" gradientUnits="userSpaceOnUse" x1="16.3462" y1="26.2646" x2="55.0723" y2="26.2646">
		<stop  offset="0" style="stop-color:#ADCA8C"/>
		<stop  offset="1" style="stop-color:#8EA776"/>
	</linearGradient>
	<path fill="url(#SVGID_4_)" d="M16.956,9.438c-1.002-0.466-0.758,0.509,0.65,2.167C22.9,17.717,28.703,23.314,34.95,28.602
		c1.901,1.577,3.874,3.083,5.905,4.497c4.567,3.148,9.092,6.388,13.595,9.699c1.321,0.981,0.455,0.146-1.81-1.902
		c-7.386-6.74-14.201-13.833-20.351-21.521c-1.355-1.723-2.867-3.582-4.747-4.757C24.027,12.83,20.505,11.107,16.956,9.438z"/>
	<linearGradient id="SVGID_5_" gradientUnits="userSpaceOnUse" x1="11.1357" y1="29.8071" x2="50.5732" y2="29.8071">
		<stop  offset="0" style="stop-color:#ADCA8C"/>
		<stop  offset="1" style="stop-color:#8EA776"/>
	</linearGradient>
	<path fill="url(#SVGID_5_)" d="M11.646,19.169c-0.948-0.2-0.547,0.585,0.964,1.723c5.684,4.172,11.698,7.792,18.037,11.075
		c1.913,0.976,3.884,1.87,5.889,2.677c4.486,1.788,8.962,3.663,13.427,5.603c1.316,0.58,0.417,0.032-1.907-1.268
		c-7.575-4.291-14.748-8.994-21.461-14.336c-1.485-1.203-3.132-2.487-4.952-3.121C18.311,20.686,14.979,19.906,11.646,19.169z"/>
	<linearGradient id="SVGID_6_" gradientUnits="userSpaceOnUse" x1="8.5088" y1="34.335" x2="45.3027" y2="34.335">
		<stop  offset="0" style="stop-color:#ADCA8C"/>
		<stop  offset="1" style="stop-color:#8EA776"/>
	</linearGradient>
	<path fill="url(#SVGID_6_)" d="M8.91,29.182c-0.824,0.005-0.347,0.58,1.127,1.235c5.521,2.389,11.205,4.258,17.089,5.792
		c1.777,0.444,3.587,0.812,5.407,1.105c4.069,0.634,8.139,1.338,12.224,2.108c1.197,0.233,0.353-0.054-1.831-0.693
		c-7.109-2.124-13.958-4.676-20.551-7.84c-1.463-0.721-3.072-1.474-4.708-1.652C14.735,29.171,11.814,29.149,8.91,29.182z"/>
</g>
<g>
	<linearGradient id="SVGID_7_" gradientUnits="userSpaceOnUse" x1="29.4937" y1="67.2803" x2="40.5039" y2="67.2803">
		<stop  offset="0" style="stop-color:#ADCA8C"/>
		<stop  offset="1" style="stop-color:#8EA776"/>
	</linearGradient>
	<path fill="url(#SVGID_7_)" d="M30.296,91.969c0.097,1.104,0.823,0.4,1.555-1.643c2.649-7.65,4.595-15.469,6.052-23.52
		c0.418-2.439,0.737-4.898,0.938-7.369c0.444-5.527,0.986-11.064,1.609-16.624c0.185-1.636-0.108-0.466-0.748,2.525
		c-2.146,9.758-4.881,19.213-8.463,28.379c-0.818,2.037-1.668,4.27-1.745,6.492C29.705,84.145,29.971,88.066,30.296,91.969z"/>
	<linearGradient id="SVGID_8_" gradientUnits="userSpaceOnUse" x1="38.2515" y1="69.7188" x2="43.1313" y2="69.7188">
		<stop  offset="0" style="stop-color:#ADCA8C"/>
		<stop  offset="1" style="stop-color:#8EA776"/>
	</linearGradient>
	<path fill="url(#SVGID_8_)" d="M41.387,91.703c0.298,0.92,0.774,0.184,1.002-1.697c0.77-7.01,0.899-14.033,0.58-21.158
		c-0.119-2.145-0.325-4.301-0.629-6.436c-0.698-4.785-1.316-9.596-1.863-14.434c-0.157-1.426-0.185-0.374-0.141,2.286
		c0.064,8.707-0.418,17.267-1.686,25.753c-0.304,1.891-0.591,3.955-0.232,5.852C39.36,85.174,40.352,88.451,41.387,91.703z"/>
	<linearGradient id="SVGID_9_" gradientUnits="userSpaceOnUse" x1="42.1533" y1="70.8672" x2="51.9844" y2="70.8672">
		<stop  offset="0" style="stop-color:#ADCA8C"/>
		<stop  offset="1" style="stop-color:#8EA776"/>
	</linearGradient>
	<path fill="url(#SVGID_9_)" d="M51.421,89.068c0.423,0.711,0.683,0.006,0.51-1.604c-0.688-5.965-1.913-11.828-3.533-17.689
		c-0.504-1.762-1.083-3.512-1.739-5.234c-1.489-3.842-2.915-7.721-4.285-11.639c-0.401-1.158-0.228-0.281,0.314,1.93
		c1.706,7.217,2.926,14.428,3.483,21.721c0.108,1.621,0.26,3.398,0.921,4.904C48.501,84.025,49.942,86.561,51.421,89.068z"/>
	<linearGradient id="SVGID_10_" gradientUnits="userSpaceOnUse" x1="45.7148" y1="70.666" x2="60.334" y2="70.666">
		<stop  offset="0" style="stop-color:#ADCA8C"/>
		<stop  offset="1" style="stop-color:#8EA776"/>
	</linearGradient>
	<path fill="url(#SVGID_10_)" d="M59.934,84.512c0.471,0.5,0.547-0.119,0.119-1.387c-1.653-4.682-3.723-9.184-6.102-13.609
		c-0.736-1.322-1.527-2.635-2.373-3.896c-1.901-2.822-3.766-5.695-5.597-8.598c-0.536-0.857-0.228-0.186,0.606,1.494
		c2.709,5.51,5.018,11.098,6.811,16.873c0.385,1.289,0.835,2.691,1.647,3.787C56.655,80.984,58.28,82.768,59.934,84.512z"/>
</g>
</svg>
