<?xml version="1.0" encoding="utf-8"?>
<!-- Generator: Adobe Illustrator 16.0.0, SVG Export Plug-In . SVG Version: 6.00 Build 0)  -->
<!DOCTYPE svg PUBLIC "-//W3C//DTD SVG 1.1//EN" "http://www.w3.org/Graphics/SVG/1.1/DTD/svg11.dtd">
<svg version="1.1" id="Layer_1" xmlns="http://www.w3.org/2000/svg" xmlns:xlink="http://www.w3.org/1999/xlink" x="0px" y="0px"
	 width="100px" height="100px" viewBox="0 0 100 100" enable-background="new 0 0 100 100" xml:space="preserve">
<g>
	<g>
		<linearGradient id="SVGID_1_" gradientUnits="userSpaceOnUse" x1="33.9653" y1="57.543" x2="33.9653" y2="7.2544">
			<stop  offset="0" style="stop-color:#2D2D2D"/>
			<stop  offset="1" style="stop-color:#575757"/>
		</linearGradient>
		<path fill="url(#SVGID_1_)" d="M50.483,7.254l-7.276,7.271c7.49,7.487,7.49,19.628,0,27.116c-7.484,7.489-19.624,7.489-27.113,0
			l0,0L8.82,48.913c11.505,11.507,30.156,11.507,41.663,0C61.985,37.41,61.985,18.756,50.483,7.254z"/>
		
			<linearGradient id="SVGID_2_" gradientUnits="userSpaceOnUse" x1="1232.2295" y1="1257.3223" x2="1232.2295" y2="1207.0313" gradientTransform="matrix(0 -1 -1 0 1301.084 1301.082)">
			<stop  offset="0" style="stop-color:#2D2D2D"/>
			<stop  offset="1" style="stop-color:#575757"/>
		</linearGradient>
		<path fill="url(#SVGID_2_)" d="M94.053,52.338l-7.274,7.273c-7.488-7.492-19.626-7.492-27.113,0
			c-7.489,7.484-7.489,19.626,0,27.113l0,0l-7.276,7.271c-11.502-11.5-11.502-30.153,0-41.658
			C63.896,40.833,82.551,40.833,94.053,52.338z"/>
		<path fill="#6EBFAC" d="M40.899,25.62c0,6.945-5.625,12.579-12.57,12.579c-6.943,0-12.574-5.634-12.574-12.579
			c0-6.94,5.631-12.571,12.574-12.571C35.273,13.049,40.899,18.68,40.899,25.62z"/>
	</g>
</g>
</svg>
