<?xml version="1.0" encoding="utf-8"?>
<!-- Generator: Adobe Illustrator 14.0.0, SVG Export Plug-In . SVG Version: 6.00 Build 43363)  -->
<!DOCTYPE svg PUBLIC "-//W3C//DTD SVG 1.1//EN" "http://www.w3.org/Graphics/SVG/1.1/DTD/svg11.dtd">
<svg version="1.1" id="Layer_1" xmlns="http://www.w3.org/2000/svg" xmlns:xlink="http://www.w3.org/1999/xlink" x="0px" y="0px"
	 width="100px" height="100px" viewBox="0 0 100 100" enable-background="new 0 0 100 100" xml:space="preserve">
<g>
	<path fill="none" d="M66.087,14.979c-20.918-3.97-35.978,7.747-35.978,7.747l0.005-0.008c-2.573,1.899-4.886,3.967-6.926,6.154
		c-1.042,1.156-2.038,2.338-2.982,3.53c-8.251,10.862-10.119,23.819-3.523,33.749c8.402,12.651,27.764,16.213,45.925,9.431
		c18.322-9.439,29.027-27.683,24.334-42.919C84.101,23.444,76.214,17.265,66.087,14.979z M56.954,21.332
		c2.288,0,4.148,2.084,4.148,4.652c0,2.571-1.86,4.648-4.148,4.648c-2.295,0-4.149-2.078-4.149-4.648
		C52.805,23.416,54.659,21.332,56.954,21.332z M31.407,41.359c1.1,0,1.996,1.002,1.996,2.238c0,1.234-0.896,2.234-1.996,2.234
		c-1.103,0-1.996-1-1.996-2.234C29.412,42.362,30.305,41.359,31.407,41.359z M34.909,64.425c-0.443,0.284-0.902,0.548-1.374,0.802
		c-0.151-0.971-1.031-6.311-2.659-7.886c-1.628-1.58-3.929,8.587-4.328,10.429c-0.572,0.113-1.141,0.205-1.707,0.273
		c0.358-2.097,2.052-12.568,1.393-17.735c-0.62-4.865-4.325-7.229-5.453-7.845c0.682-0.336,1.38-0.651,2.102-0.93
		c0.044-0.016,0.091-0.031,0.135-0.047c0.918,0.971,4.828,4.921,8.672,6.357c4.011,1.5,10.548-0.748,11.673-1.156
		c0.11,0.271,0.21,0.541,0.298,0.823c0.098,0.315,0.173,0.636,0.236,0.956c-1.239,0.148-5.843,0.827-7.808,3.03
		C34.041,53.796,34.746,62.649,34.909,64.425z M66.688,42.406c-4.259,4.777-2.794,23.189-2.451,26.882
		c-0.927,0.581-1.884,1.138-2.86,1.666c-0.312-2.019-2.141-13.122-5.522-16.4c-3.391-3.281-8.169,17.855-8.998,21.68
		c-1.191,0.239-2.376,0.431-3.548,0.572c0.738-4.359,4.262-26.134,2.895-36.87c-1.292-10.114-8.993-15.033-11.341-16.309
		c1.415-0.701,2.87-1.354,4.375-1.936c0.091-0.035,0.182-0.062,0.273-0.098c1.911,2.015,10.039,10.23,18.035,13.22
		c8.338,3.118,21.929-1.556,24.264-2.404c0.227,0.556,0.44,1.122,0.623,1.709c0.2,0.657,0.357,1.32,0.49,1.99
		C80.344,36.412,70.773,37.823,66.688,42.406z"/>
	<path fill="#6F3F5E" d="M56.954,30.632c2.288,0,4.148-2.078,4.148-4.648c0-2.568-1.86-4.652-4.148-4.652
		c-2.295,0-4.149,2.084-4.149,4.652C52.805,28.555,54.659,30.632,56.954,30.632z"/>
	<path fill="#798D8F" d="M94.478,33.737c-3.082-13.506-14.894-22.59-29.58-24.56l0.294-0.058c-6.2-0.768-12-0.319-17.044,0.661
		c-3.308,0.402-6.835,1.404-10.955,3.211c-4.752,1.878-7.577,3.668-7.577,3.668c-4.428,2.294-10.164,7.213-10.164,7.213l0.408-0.177
		C5.224,37.188,2.127,59.011,12.741,72.666c12.139,15.608,41.544,14.911,61.166,1.32c0.802-0.556,1.518-1.099,2.174-1.635
		C90.058,63.191,97.818,48.382,94.478,33.737z M62.607,75.582c-18.161,6.782-37.523,3.221-45.925-9.431
		c-6.595-9.93-4.728-22.887,3.523-33.749c0.944-1.192,1.94-2.374,2.982-3.53c2.041-2.187,4.354-4.254,6.926-6.154l-0.005,0.008
		c0,0,15.06-11.716,35.978-7.747c10.127,2.286,18.014,8.465,20.854,17.683C91.635,47.899,80.93,66.143,62.607,75.582z"/>
	<path fill="#6F3F5E" d="M81.809,32.408c-2.335,0.849-15.926,5.522-24.264,2.404c-7.996-2.989-16.124-11.205-18.035-13.22
		c-0.091,0.035-0.183,0.063-0.273,0.098c-1.506,0.582-2.961,1.235-4.375,1.936c2.348,1.276,10.048,6.195,11.341,16.309
		c1.367,10.736-2.157,32.511-2.895,36.87c1.172-0.142,2.357-0.333,3.548-0.572c0.829-3.824,5.607-24.961,8.998-21.68
		c3.382,3.278,5.211,14.382,5.522,16.4c0.977-0.528,1.934-1.085,2.86-1.666c-0.343-3.693-1.808-22.105,2.451-26.882
		c4.086-4.583,13.656-5.994,16.234-6.298c-0.133-0.669-0.29-1.333-0.49-1.99C82.249,33.53,82.035,32.964,81.809,32.408z"/>
	<ellipse fill="#6F3F5E" cx="31.407" cy="43.596" rx="1.996" ry="2.236"/>
	<path fill="#6F3F5E" d="M43.898,48.465c-0.063-0.32-0.138-0.641-0.236-0.956c-0.088-0.282-0.188-0.553-0.298-0.823
		c-1.125,0.409-7.663,2.656-11.673,1.156c-3.844-1.436-7.753-5.386-8.672-6.357c-0.044,0.016-0.091,0.031-0.135,0.047
		c-0.722,0.279-1.42,0.594-2.102,0.93c1.128,0.616,4.833,2.98,5.453,7.845c0.66,5.167-1.034,15.639-1.393,17.735
		c0.565-0.068,1.135-0.16,1.707-0.273c0.399-1.842,2.7-12.009,4.328-10.429c1.628,1.575,2.508,6.915,2.659,7.886
		c0.472-0.254,0.93-0.518,1.374-0.802c-0.163-1.775-0.868-10.629,1.182-12.93C38.055,49.292,42.659,48.613,43.898,48.465z"/>
</g>
</svg>
