<?xml version="1.0" encoding="utf-8"?>
<!-- Generator: Adobe Illustrator 16.0.4, SVG Export Plug-In . SVG Version: 6.00 Build 0)  -->
<!DOCTYPE svg PUBLIC "-//W3C//DTD SVG 1.1//EN" "http://www.w3.org/Graphics/SVG/1.1/DTD/svg11.dtd">
<svg version="1.1" id="Layer_1" xmlns="http://www.w3.org/2000/svg" xmlns:xlink="http://www.w3.org/1999/xlink" x="0px" y="0px"
	 width="131.868px" height="20.125px" viewBox="0 0 131.868 20.125" enable-background="new 0 0 131.868 20.125"
	 xml:space="preserve">
<g>
	<g>
		<path fill="#FFFFFF" d="M128.481,8.788c-1.193-0.31-1.943-0.407-1.943-1.104c0-0.542,0.385-0.853,1.136-0.853
			c0.866,0,1.231,0.504,1.27,1.221l2.79-0.155c-0.174-1.86-1.501-3.236-4.021-3.236c-2.501,0-3.982,1.24-3.982,3.158
			c0,2.054,1.404,2.5,3.521,3.042c1.442,0.349,1.809,0.542,1.809,1.144c0,0.581-0.482,0.911-1.252,0.911
			c-0.961,0-1.404-0.504-1.442-1.241l-2.81,0.155c0.212,2.093,1.693,3.256,4.233,3.256c2.597,0,4.079-1.299,4.079-3.333
			C131.868,9.931,130.464,9.311,128.481,8.788z M120.12,5.936c-0.521-0.702-1.567-1.247-2.979-1.247
			c-2.825,0-4.819,2.085-4.819,5.243s1.994,5.242,4.819,5.242c1.296,0,2.283-0.486,2.825-1.071v1.442
			c0,1.441-0.948,2.163-2.342,2.163c-1.277,0-2.109-0.585-2.244-1.56l-2.807,0.098c0.368,2.3,2.013,3.879,5.148,3.879
			c3.076,0,5.05-1.891,5.05-4.795V4.884h-2.651V5.936z M119.966,10.166c0,1.618-0.968,2.573-2.361,2.573
			c-1.412,0-2.419-1.014-2.419-2.807s1.007-2.807,2.419-2.807c1.394,0,2.361,0.955,2.361,2.573V10.166z M107.587,4.689
			c-1.355,0-2.245,0.526-2.689,1.228V4.884h-2.671V14.96h2.825V9.366c0-1.208,0.735-2.027,1.857-2.027
			c1.084,0,1.762,0.721,1.762,2.008v5.613h2.825V8.801C111.496,6.189,109.89,4.689,107.587,4.689z M98.321,14.96h2.826V4.884h-2.826
			V14.96z M99.725,0c-0.909,0-1.683,0.76-1.683,1.715c0,0.936,0.734,1.696,1.683,1.696s1.702-0.76,1.702-1.696
			C101.427,0.76,100.673,0,99.725,0z M94.527,6.034v-1.15h-2.729V14.96h2.825V9.854c0-1.384,1.025-2.319,2.651-2.319V4.786
			C95.747,4.786,94.953,5.371,94.527,6.034z M86.226,4.689c-1.394,0-2.438,0.545-2.961,1.247V4.884h-2.67V19.93h2.824v-5.827
			c0.523,0.585,1.529,1.071,2.807,1.071c2.845,0,4.838-2.085,4.838-5.242S89.07,4.689,86.226,4.689z M85.78,12.738
			c-1.393,0-2.361-0.955-2.361-2.573V9.698c0-1.618,0.969-2.573,2.361-2.573c1.412,0,2.418,1.014,2.418,2.807
			S87.192,12.738,85.78,12.738z M75.024,6.443c-1.993-0.468-2.825-0.78-2.825-1.91c0-1.013,0.774-1.754,2.147-1.754
			c1.374,0,2.227,0.799,2.245,2.027l3.058-0.156c-0.077-2.807-2.225-4.483-5.36-4.483c-3.464,0-5.147,2.066-5.147,4.463
			c0,2.826,2.168,3.566,4.779,4.229c1.936,0.488,2.98,0.897,2.98,2.008c0,1.189-0.947,1.695-2.283,1.695
			c-1.567,0-2.709-0.896-2.768-2.222l-3.038,0.156c0.039,3.021,2.458,4.677,5.806,4.677c2.902,0,5.321-1.363,5.321-4.462
			C79.939,8.119,77.985,7.203,75.024,6.443z M63,7.125c1.083,0,1.838,0.663,1.974,1.696l2.767-0.234
			C67.374,6.15,65.438,4.689,63,4.689c-2.961,0-5.128,1.929-5.128,5.243c0,3.294,2.187,5.242,5.128,5.242
			c2.458,0,4.354-1.461,4.741-3.839l-2.748-0.253c-0.155,1.014-0.891,1.637-1.993,1.637c-1.316,0-2.265-1.014-2.265-2.787
			C60.736,8.139,61.685,7.125,63,7.125z M54.278,14.96h2.825V4.884h-2.825V14.96z M55.69,0c-0.909,0-1.683,0.76-1.683,1.715
			c0,0.936,0.735,1.696,1.683,1.696c0.948,0,1.703-0.76,1.703-1.696C57.394,0.76,56.639,0,55.69,0z M49.454,4.953
			c-1.273,0-2.072,0.498-2.49,1.034v-5.82h-2.775v14.874h2.775V9.547c0-1.187,0.722-1.991,1.825-1.991
			c1.064,0,1.729,0.708,1.729,1.972v5.513h2.775V8.992C53.294,6.427,51.716,4.953,49.454,4.953z M38.546,4.743
			c-1.394,0-2.439,0.545-2.961,1.247V4.938h-2.671v15.046h2.826v-5.827c0.522,0.584,1.528,1.072,2.806,1.072
			c2.844,0,4.837-2.086,4.837-5.243S41.39,4.743,38.546,4.743z M38.101,12.792c-1.394,0-2.361-0.955-2.361-2.573V9.751
			c0-1.618,0.967-2.573,2.361-2.573c1.413,0,2.419,1.014,2.419,2.807S39.513,12.792,38.101,12.792z M29.29,5.936
			c-0.522-0.702-1.567-1.247-2.98-1.247c-2.826,0-4.819,2.066-4.819,5.243c0,3.157,1.993,5.242,4.819,5.242
			c1.413,0,2.458-0.564,2.98-1.247v1.033h2.651V4.884H29.29V5.936z M29.135,10.146c0,1.637-0.967,2.573-2.361,2.573
			c-1.413,0-2.419-0.994-2.419-2.787s1.006-2.807,2.419-2.807c1.394,0,2.361,0.955,2.361,2.573V10.146z M18.323,6.034v-1.15h-2.729
			V14.96h2.826V9.854c0-1.384,1.026-2.319,2.651-2.319V4.786C19.542,4.786,18.75,5.371,18.323,6.034z M7.334,9.659h3.638
			c-0.445,2.007-1.877,2.845-3.658,2.845c-2.573,0-4.277-1.598-4.277-4.833c0-3.235,1.684-4.833,4.277-4.833
			c1.974,0,3.29,1.092,3.697,2.865l3.096-0.526c-0.773-3.196-3.425-5.009-6.773-5.009C3.116,0.167,0,2.954,0,7.67
			c0,4.697,3.135,7.503,7.354,7.503c4.238,0,6.889-2.885,6.889-7.191V7.008H7.334V9.659z"/>
	</g>
</g>
</svg>
