<?xml version="1.0" encoding="utf-8"?>
<!-- Generator: Adobe Illustrator 16.0.4, SVG Export Plug-In . SVG Version: 6.00 Build 0)  -->
<!DOCTYPE svg PUBLIC "-//W3C//DTD SVG 1.1//EN" "http://www.w3.org/Graphics/SVG/1.1/DTD/svg11.dtd">
<svg version="1.1" xmlns="http://www.w3.org/2000/svg" xmlns:xlink="http://www.w3.org/1999/xlink" x="0px" y="0px" width="20.004px" height="16.917px" viewBox="0 0 20.004 16.917" enable-background="new 0 0 20.004 16.917" xml:space="preserve">
    <g>
        <defs>
            <rect id="SVGID_1_" y="0" width="20.004" height="16.917"/>
        </defs>
        <clipPath id="SVGID_2_">
            <use xlink:href="#SVGID_1_"  overflow="visible"/>
        </clipPath>
        <path clip-path="url(#SVGID_2_)" fill="#FFFFFF" d="M19.67,6.862c-0.447-0.458-1.171-0.458-1.618,0L16.572,8.38
            c-0.024-2.2-0.879-4.351-2.424-5.935c-3.231-3.315-8.492-3.315-11.724,0c-3.233,3.315-3.233,8.709,0,12.023
            c1.577,1.618,3.695,2.49,5.865,2.49c0.776,0,1.559-0.11,2.326-0.341c1.328-0.397,2.551-1.141,3.533-2.149
            c0.447-0.457,0.447-1.2,0-1.658c-0.446-0.458-1.17-0.458-1.617,0c-0.712,0.73-1.597,1.269-2.557,1.557
            c-2.108,0.63-4.382,0.034-5.933-1.557c-2.341-2.4-2.341-6.307,0-8.707c2.341-2.401,6.15-2.401,8.49,0
            c1.119,1.148,1.732,2.652,1.761,4.22l-1.32-1.354c-0.446-0.458-1.171-0.458-1.617,0c-0.447,0.458-0.447,1.2,0,1.658l3.296,3.381
            c0.225,0.229,0.517,0.343,0.81,0.343s0.586-0.114,0.809-0.343L19.67,8.52C20.115,8.062,20.115,7.32,19.67,6.862"/>
    </g>
</svg>