<?xml version="1.0" encoding="utf-8"?>
<!-- Generator: Adobe Illustrator 16.0.4, SVG Export Plug-In . SVG Version: 6.00 Build 0)  -->
<!DOCTYPE svg PUBLIC "-//W3C//DTD SVG 1.1//EN" "http://www.w3.org/Graphics/SVG/1.1/DTD/svg11.dtd">
<svg version="1.1" id="Layer_1" xmlns="http://www.w3.org/2000/svg" xmlns:xlink="http://www.w3.org/1999/xlink" x="0px" y="0px"
	 width="36px" height="22px" viewBox="0 0 36 22" enable-background="new 0 0 36 22" xml:space="preserve">
<g>
	<defs>
		<rect id="SVGID_1_" width="36" height="22"/>
	</defs>
	<clipPath id="SVGID_2_">
		<use xlink:href="#SVGID_1_"  overflow="visible"/>
	</clipPath>
	<path clip-path="url(#SVGID_2_)" fill-rule="evenodd" clip-rule="evenodd" d="M32,0H4C1.791,0,0,1.791,0,4v14c0,2.209,1.791,4,4,4
		h28c2.209,0,4-1.791,4-4V4C36,1.791,34.209,0,32,0 M9.756,6h0.066c1.402,0,2.539,1.098,2.539,2.5S11.224,11,9.822,11H9.756
		c-1.402,0-2.538-1.098-2.538-2.5S8.354,6,9.756,6 M15,15.764C15,16.719,13.781,17,12.361,17H7.218C5.798,17,5,16.719,5,15.764
		v-1.691C5,12.67,5.798,12,7.218,12h5.143C13.781,12,15,12.67,15,14.072V15.764z M30,16H19v-2h11V16z M30,12H19v-2h11V12z M30,8H19
		V6h11V8z"/>
</g>
</svg>
