<?xml version="1.0" encoding="utf-8"?>
<!-- Generator: Adobe Illustrator 16.0.4, SVG Export Plug-In . SVG Version: 6.00 Build 0)  -->
<!DOCTYPE svg PUBLIC "-//W3C//DTD SVG 1.1//EN" "http://www.w3.org/Graphics/SVG/1.1/DTD/svg11.dtd">
<svg version="1.1" id="Layer_1" xmlns="http://www.w3.org/2000/svg" xmlns:xlink="http://www.w3.org/1999/xlink" x="0px" y="0px"
	 width="24.255px" height="21.35px" viewBox="0 0 24.255 21.35" enable-background="new 0 0 24.255 21.35" xml:space="preserve">
<g>
	<g>
		<path fill="#0F0909" d="M24.132,4.942l-4.859-4.813c-0.078-0.081-0.187-0.123-0.299-0.123H15.72C15.702,0,15.684,0,15.663,0
			c-0.149,0-0.282,0.076-0.354,0.19c-0.03,0.042-0.051,0.09-0.062,0.143c-0.008,0.028-0.011,0.059-0.011,0.089v0.003
			c-0.084,0.207-1.134,0.725-3.11,0.725c-1.997,0-3.042-0.526-3.11-0.73c0-0.057-0.011-0.109-0.034-0.157
			C8.972,0.238,8.959,0.212,8.943,0.19C8.867,0.079,8.739,0.006,8.593,0.006H5.279c-0.11,0-0.22,0.042-0.299,0.123L0.124,4.942
			C0.045,5.021,0,5.127,0,5.239c0,0.111,0.045,0.217,0.124,0.296l3.403,3.376c0.167,0.162,0.436,0.162,0.6,0l0.729-0.726v12.742
			c0,0.233,0.192,0.421,0.423,0.421h13.695c0.234,0,0.424-0.188,0.424-0.421V8.187l0.729,0.726c0.157,0.157,0.44,0.157,0.599,0
			l3.406-3.376C24.296,5.373,24.296,5.107,24.132,4.942z M12.127,3.509c-1.319,0-2.453-0.821-2.901-1.975
			c0.771,0.311,1.858,0.457,2.901,0.457s2.129-0.146,2.9-0.457C14.578,2.688,13.446,3.509,12.127,3.509z"/>
	</g>
</g>
</svg>
