<?xml version="1.0" encoding="utf-8"?>
<!-- Generator: Adobe Illustrator 16.0.4, SVG Export Plug-In . SVG Version: 6.00 Build 0)  -->
<!DOCTYPE svg PUBLIC "-//W3C//DTD SVG 1.1//EN" "http://www.w3.org/Graphics/SVG/1.1/DTD/svg11.dtd">
<svg version="1.1" xmlns="http://www.w3.org/2000/svg" xmlns:xlink="http://www.w3.org/1999/xlink" x="0px" y="0px" width="20.004px" height="16.917px" viewBox="0 0 20.004 16.917" enable-background="new 0 0 20.004 16.917" xml:space="preserve">
    <g>
        <defs>
            <rect id="SVGID_1_" y="0" width="20.004" height="16.917"/>
        </defs>
        <clipPath id="SVGID_2_">
            <use xlink:href="#SVGID_1_"  overflow="visible"/>
        </clipPath>
        <path clip-path="url(#SVGID_2_)" fill="#FFFFFF" d="M0.334,6.904c0.447-0.458,1.171-0.458,1.618,0l1.479,1.518
            c0.025-2.2,0.879-4.351,2.424-5.935c3.232-3.315,8.492-3.315,11.725,0c3.232,3.315,3.232,8.709,0,12.023
            C16.003,16.128,13.885,17,11.715,17c-0.776,0-1.56-0.111-2.326-0.341c-1.328-0.397-2.55-1.141-3.533-2.149
            c-0.447-0.458-0.447-1.2,0-1.658c0.446-0.458,1.17-0.458,1.617,0c0.712,0.73,1.597,1.269,2.557,1.557
            c2.108,0.63,4.382,0.034,5.934-1.557c2.341-2.4,2.341-6.308,0-8.708c-2.341-2.401-6.15-2.401-8.49,0
            c-1.119,1.148-1.732,2.652-1.76,4.22l1.32-1.354c0.447-0.458,1.171-0.458,1.617,0c0.447,0.458,0.447,1.2,0,1.658l-3.296,3.381
            c-0.224,0.229-0.516,0.344-0.809,0.344s-0.586-0.114-0.809-0.344L0.334,8.562C-0.111,8.104-0.111,7.362,0.334,6.904"/>
    </g>
</svg>